# xmcd
#
# Track frame offsets: 
#        150
#        19644
#        34525
#        52522
#        69501
#        83355
#        102909
#        120016
#        138922
#        161464
#        177771
#        194207
#
# Disc length: 2826 seconds
#
# Revision: 0
# Processed by: cddbd v1.5.2PL0 Copyright (c) Steve Scherf et al.
# Submitted via: ExactAudioCopyFreeDBPlugin 1.0
#
DISCID=830b080c
DTITLE=Fred Dobson - Peace in the Valley (Classic Country Hymns) - Dis
DTITLE=c 2 (Church in the Wildwood)
DYEAR=2011
DGENRE=Country
TTITLE0=Rock of Ages
TTITLE1=Shall We Gather at the River
TTITLE2=Peace in the Valley
TTITLE3=Church in the Wildwood
TTITLE4=We Gather Together
TTITLE5=The Old Rugged Cross
TTITLE6=Down to the River to Pray
TTITLE7=How Great Thou Art
TTITLE8=When They Ring Those Golden Bells
TTITLE9=He Leadeth Me
TTITLE10=This is My Father's World
TTITLE11=You'll Never Walk Alone
EXTD=
EXTT0=
EXTT1=
EXTT2=
EXTT3=
EXTT4=
EXTT5=
EXTT6=
EXTT7=
EXTT8=
EXTT9=
EXTT10=
EXTT11=
PLAYORDER=
